# xmcd
# 
# Track frame offsets:
#     150
#     17672
#     31962
#     41737
#     56370
#     68365
#     92620
#     104775
#     127915
# 
# Disc length: 2004
# 
# Revision: 17
# Processed by: cddbd v1.5.2PL0 Copyright (c) Steve Scherf et al.
# Submitted via: fre:ac v1.0.31
# 
DISCID=6b07d209
DTITLE=Andreas Vollenweider - Caverna Magica (...Under the Tree - In the Cave...)
DYEAR=1983
DGENRE=New Age
TTITLE0=Caverna Magica
TTITLE1=Mandragora
TTITLE2=Lunar Pond
TTITLE3=Schajah Saretosh
TTITLE4=Sena Stanjéna?
TTITLE5=Belladonna
TTITLE6=Angóh
TTITLE7=Huiziopochtli
TTITLE8=Con Chiglia - Geastrum Coronatum - La Paix Verde
EXTD=(...under the Tree - in the Cave) YEAR: 1983
EXTT0=
EXTT1=
EXTT2=
EXTT3=
EXTT4=
EXTT5=
EXTT6=
EXTT7=
EXTT8=
PLAYORDER=
